<?xml version="1.0" standalone="no"?>
<!DOCTYPE svg PUBLIC "-//W3C//DTD SVG 20010904//EN"
 "http://www.w3.org/TR/2001/REC-SVG-20010904/DTD/svg10.dtd">
<svg version="1.0" xmlns="http://www.w3.org/2000/svg"
 width="1600.000000pt" height="1600.000000pt" viewBox="0 0 1600.000000 1600.000000"
 preserveAspectRatio="xMidYMid meet">
<metadata>
Created by potrace 1.11, written by Peter Selinger 2001-2013
</metadata>
<g transform="translate(0.000000,1600.000000) scale(0.100000,-0.100000)"
fill="#000000" stroke="none">
<path d="M1354 12456 c-27 -27 -34 -42 -34 -73 0 -34 13 -57 95 -167 731 -982
1336 -2293 1740 -3766 439 -1599 583 -3278 393 -4565 -47 -315 -47 -298 -4
-341 33 -33 40 -36 81 -32 35 4 72 25 192 109 665 463 1393 1084 2151 1834
784 775 1471 1560 1930 2207 53 76 99 137 102 137 3 0 21 -23 40 -51 61 -90
299 -407 418 -558 400 -502 829 -983 1342 -1504 843 -855 1623 -1531 2368
-2054 152 -107 179 -122 214 -122 32 0 47 7 74 34 40 40 41 48 14 205 -60 353
-90 723 -97 1201 -6 410 3 685 37 1085 192 2256 1022 4625 2159 6160 97 130
111 154 111 188 0 52 -52 107 -100 107 -68 0 -472 -133 -776 -255 -1766 -712
-4081 -2320 -5682 -3948 l-123 -125 -117 120 c-161 166 -508 498 -742 709
-1789 1613 -4057 3023 -5573 3464 -151 44 -170 44 -213 1z m761 -425 c1380
-553 3207 -1734 4685 -3030 355 -312 1021 -949 1020 -976 0 -15 -220 -142
-360 -209 -266 -127 -488 -168 -711 -132 -253 42 -430 127 -981 469 -321 200
-532 301 -736 352 -428 107 -785 16 -1370 -349 -95 -59 -175 -106 -176 -104
-2 1 -24 89 -50 193 -350 1391 -923 2740 -1592 3741 -68 103 -124 188 -124
190 0 6 217 -74 395 -145z m12072 3 c-434 -641 -838 -1443 -1160 -2304 -158
-425 -336 -985 -432 -1365 -15 -60 -35 -117 -44 -126 -17 -17 -386 -247 -516
-322 -504 -289 -850 -318 -1294 -106 -130 62 -240 124 -456 259 -604 378 -841
472 -1185 473 -159 1 -254 -14 -406 -61 l-92 -29 92 87 c1639 1554 3837 3003
5451 3591 72 26 131 46 133 44 2 -1 -39 -65 -91 -141z m-9219 -3739 c195 -50
373 -135 677 -323 363 -225 435 -267 577 -337 267 -131 452 -179 688 -179 212
1 391 43 609 145 46 21 86 39 88 39 7 0 -145 -198 -308 -400 -431 -536 -902
-1053 -1486 -1630 -646 -639 -1251 -1168 -1833 -1601 -181 -135 -210 -155
-210 -142 0 5 7 60 15 123 132 1031 64 2271 -196 3578 -28 140 -49 255 -47
256 20 14 360 223 413 253 234 135 434 213 620 243 100 15 277 4 393 -25z
m4340 11 c213 -46 406 -138 787 -376 477 -298 681 -397 938 -452 152 -32 372
-31 522 4 241 56 507 182 853 405 58 37 82 48 78 36 -24 -75 -125 -597 -171
-878 -178 -1097 -214 -2209 -99 -3064 8 -62 13 -115 11 -118 -6 -5 -280 197
-484 358 -557 439 -1029 864 -1648 1483 -541 541 -821 845 -1214 1316 -313
376 -726 919 -717 945 4 14 172 115 308 185 182 93 330 145 485 170 79 12 262
5 351 -14z"/>
</g>
</svg>
